<?xml version="1.0" encoding="UTF-8"?>
<svg width="390.62" height="366.31" version="1.1" viewBox="0 0 390.62 366.31" xmlns="http://www.w3.org/2000/svg">
 <style type="text/css">.st0{fill:#CAF7F9;} .st1{fill:#49301E;} .st2{fill:#432918;} .st3{fill:#89755C;} .st4{fill:#ACC389;} .st5{fill:#DBABB4;} .st6{fill:#EEB76F;} .st7{fill:#EEB76E;} .st8{fill:#E497A0;}</style>
 <ellipse class="st0" cx="218.82" cy="183.21" rx="169.8" ry="183.1"/>
 <g transform="translate(-73.776 -184.99)">
  <path class="st1" d="m215.9 417.2c0.3-4 0.7-8 1.7-12 1.5-6.1 4.2-11.6 8.9-15.9 2.2-2 4.7-1.6 5.9 1 3.5 7.6 5 15.5 4.5 23.9-0.6 8.8-3.4 16.8-8.3 24-0.4 0.7-0.4 1.1 0 1.7 3.8 5.5 7.2 11.3 9.9 17.4 0.2 0.5 0.5 0.5 1 0.4 6.6-1.4 13.3-1.6 20-2.2 6.3-0.6 12.6-1.3 18.9-1.9 6.1-0.5 12.2-1 18.3-1.4 0.5-0.2 1.1 0 1.6-0.2 1 0 2.1-0.1 3.1-0.1 0.5-0.2 1.1 0 1.6-0.2 1.3 0 2.7-0.1 4-0.1 0.6-0.2 1.3 0.1 1.9-0.2 1.4 0.2 2.9-0.1 4.3-0.1 0.7-0.2 1.5 0.1 2.2-0.2 1.9 0.2 3.9-0.1 5.8-0.1 0.9-0.2 1.9 0.1 2.8-0.2 1.4 0.3 2.8-0.1 4.3 0 0.8 2 1.1 4 0.5 6.2-0.3 0.3-0.6 0.4-1 0.4-1.1 0.1-2.1-0.1-3.2 0.2-2.3 0.2-4.5 0.1-6.8 0.1-0.7-0.1-1.4-0.1-2.1 0.2-1.1 0.2-2.3 0.1-3.4 0.1-1 0-2-0.1-3 0.2-1.4 0.2-2.8 0.1-4.2 0.3-0.6-0.1-1.2-0.3-1.8 0-3.7 0.3-7.5 0.4-11.3 0.7-4.4 0.4-8.9 0.6-13.3 1.1-4.7 0.5-9.4 0.8-14 1.4-7.8 0.9-15.7 0.8-23.5 2.6-0.8 0.2-1.5 0.4-2.3 0.6-3.2 0.9-4.5 0.3-5.8-2.7-2.8-6.4-6.3-12.5-10.2-18.3-4.9-7.1-10.6-13.6-17.1-19.4-4.2-3.8-8.6-7.3-13.4-10.3-1.5-0.9-3-1.8-4.8-1.7-1 0.1-1.5 0.3-1.8 1.4-0.7 2.9-0.5 3.4 1.9 5.1 1.9 1.3 4.1 2.3 6.2 3.1 4.3 1.7 7.8 4.4 11.2 7.5 7.3 6.8 12.8 15 17.8 23.5 1.8 3 3.6 6.1 5.1 9.3 1.2 2.6 0 4.8-2.8 5.2-1.4 0.1-2.9-0.2-4.3 0.2-1.2 0.2-2.4 0.1-3.5 0.1-1.6-0.1-3.2 0-4.8 0h-18.9c-1.1 0-2.2 0.1-3.3-0.1-1.5-0.4-3-0.2-4.5-0.2-1.7 0-3.4 0.1-5.1-0.1-0.5-0.1-1.1-0.3-1.7-0.2-5.8-0.1-11.6-0.4-17.3-1.4-4.3-0.8-8.2-2.6-11.7-5.2-5.1-3.8-9.9-8.1-15.4-11.5-3.3-2-6.6-4.1-10.3-5.2-0.9-0.3-1.7-0.6-3-0.4 2.3 1.7 4.5 3 6.5 4.5 7.6 5.6 14.3 12.1 20 19.7 2 2.7 0.8 5.4-2.5 5.8-1.9 0.1-3.9-0.2-5.8 0.2-4.8 0.3-9.6 0.1-14.4 0.1-2.4-0.1-4.7 0-7.1 0h-4.6c-1.8 0-1.8 0-1.7 1.8 0.1 1 0.2 2 0.6 2.9 0.9 1.6 1.9 3 4.1 2.5 1-0.2 2.2 0 3.3 0h2c1.6-0.1 3.1 0.2 4.7-0.2 0.9-0.2 1.8-0.1 2.6-0.1 0.7 0.1 1.4 0 2.1 0 0.9 0 1.7 0.1 2.6-0.2 1.5-0.2 3-0.1 4.6-0.1 0.7 0.1 1.4 0 2.2 0 1.6-0.1 3.2 0.2 4.8-0.2 1.5-0.2 3.1-0.1 4.6-0.1 1 0.1 2 0.1 2.9-0.2 2.2-0.2 4.4-0.1 6.6-0.1 0.9 0.1 1.8 0.1 2.7-0.2 2.2-0.2 4.4-0.1 6.6-0.1 1.6 0 3.3 0.2 4.9-0.2 1.5-0.2 3.1-0.1 4.6-0.1 1 0 1.9 0.1 2.9-0.2 1.4-0.2 2.9-0.1 4.3-0.1 0.8 0.1 1.6 0 2.4 0 1.5-0.1 3 0.2 4.5-0.2 0.9-0.2 1.8-0.1 2.7-0.1h2.1c1.6-0.1 3.2 0.2 4.7-0.2 0.9-0.2 1.8-0.1 2.6-0.1 0.7 0.1 1.4 0 2 0 0.9 0 1.8 0.1 2.6-0.1 2.2-0.2 3.5 0.4 4.1 1.8 0.7 1.7 0.2 3.5-1.5 4.8-5.5 4.1-11.3 7.6-17.5 10.4-5.2 2.4-10.6 4.3-16.4 5.8 5.1 1.1 9.7-0.3 14.4-1.3 0.4-0.1 0.7-0.3 1-0.6 1-0.9 2.1-1.2 3.4-1 0.7 0.1 1.3 0 1.9-0.2 6.6-2.1 12.7-5.2 17.5-10.3 2.4-2.6 4.9-5.1 7.3-7.6 3.6-3.7 7.7-6.5 12.7-7.9 0.7-0.2 1.3-0.4 2-0.4 0.5 0 1.1 0 1.6-0.2 0.6-0.1 1.3-0.1 1.9-0.1s1.1 0 1.6-0.2c0.6-0.1 1.3-0.1 1.9-0.1s1.3 0 1.9-0.2c0.7-0.1 1.3-0.1 2-0.1 0.7 0.1 1.3 0 2-0.2 2.1-0.1 4.2-0.4 6.3-0.4 0.8 0 1.5 0.1 2.3-0.2 0.8-0.2 1.7-0.1 2.6-0.1 0.8 0 1.5 0.1 2.2-0.2 0.8-0.2 1.7-0.1 2.5-0.1s1.7 0.1 2.5-0.2c0.9-0.2 1.9-0.1 2.8-0.1h1.5c1.4-0.3 2.7-0.3 4.1-0.3h1.5c0.7 0 1.3 0 2-0.2 1-0.2 2.1-0.1 3.1-0.1h1.8c0.8 0 1.5 0 2.3-0.2 1.2-0.2 2.5-0.1 3.7-0.1 0.7 0.1 1.4 0 2.1 0 0.9 0 1.7 0.1 2.6-0.2 1.7-0.2 3.4-0.1 5.2-0.1 1 0.1 2 0 3 0 2.3-0.1 4.7 0.2 7-0.2 0.6-0.1 1.2-0.2 1.7 0.4-0.1 0.8-0.8 0.8-1.3 0.9-1 0.3-2 0.4-3 0.9-1.3 0.6-1.9 1.5-1.8 2.8 0.1 1.7 0.1 1.7-1.6 1.8-1.9 0-3.8 0.1-5.8 0.1-0.9 0.2-1.9-0.1-2.8 0.2-2.1-0.2-4.3 0.1-6.4 0.1-0.8 0.2-1.7-0.1-2.5 0.2-1.6-0.2-3.3 0-4.9 0.1-0.7 0.2-1.5-0.1-2.2 0.2-1.5-0.2-2.9 0-4.3 0.1-0.5 0.1-1.1 0-1.6 0.2-1.3-0.2-2.7 0-4 0.1-0.5 0.2-1.1 0-1.6 0.2-1.1-0.2-2.3 0-3.4 0.1-0.5 0.2-1.1 0-1.6 0.2-3.4-0.1-6.7 0.3-10.1 0.6-2 0.1-3.9 0.3-5.9 0.4-0.5 0.2-1.1 0-1.6 0.2-4.6 0.3-9.2 0.1-13.4 2.4-3.3 1.9-6 4.5-8.3 7.4-6.2 8.4-14.6 13.4-24.4 16.4-1.1 0.3-1.3 0.6-1 1.7 2.8 11.6 0.4 22.2-6.7 31.8-3.1 4.2-7.2 7.3-11.7 9.8-0.5 0.3-1.2-0.2-1.6 0.5h-0.6c-2.3-0.7-2.6-2.6-2.9-4.5-0.8-5.2-0.8-10.4-0.6-15.5 0.1-2.9 0.7-5.7 1.3-8.5 0.7-3.7 2-7.3 3.4-11-5-0.1-9.1-2.6-13.3-4.7-1-0.5-2.1-0.7-2.9-1.6-1.2-1.4-1.4-3.8-0.3-4.8 0.4-0.4 0.9-0.5 1.4-0.6 6.6-0.9 13-2.6 19.3-4.9 4.6-1.7 9-3.9 13.4-6.2-0.6-0.5-0.6-0.5-2.4-0.3-0.8 0-1.6 0.1-2.4 0.1-0.9 0.2-1.9-0.1-2.8 0.2-2.2-0.2-4.5 0-6.7 0.1-0.8 0.2-1.7-0.1-2.5 0.2-2.2-0.2-4.5 0.1-6.7 0.1-0.9 0.2-1.9-0.1-2.8 0.2-2.2-0.2-4.5 0-6.7 0.1-0.9 0.2-1.9-0.1-2.8 0.2-2.2-0.2-4.5 0-6.7 0.1-0.8 0.2-1.7-0.1-2.5 0.2-2.2-0.2-4.5 0.1-6.7 0.1-0.9 0.2-1.9-0.1-2.8 0.2-2.2-0.2-4.5 0.1-6.7 0.1-0.9 0.2-1.9-0.1-2.8 0.2-2.1-0.2-4.3 0.1-6.4 0.1-0.9 0.2-1.9-0.1-2.8 0.2-2.2-0.2-4.5 0.1-6.7 0.1-0.9 0.2-1.9-0.1-2.8 0.2-0.2-0.1-0.5-0.1-0.7 0-0.3 0.7-0.2 1.3 0 2-0.1 2.6 0 5.1-0.3 7.7-0.8 8.6-3.9 15.9-11.4 20.7-2.5 1.6-5.3 2.4-8.3 2.8-1.2 0.1-2.4 0.1-3.6 0-3.2-0.4-4.4-1.4-4.1-4 0.1-1 0.2-2 0.4-3 0.9-5.4 2.4-10.7 5.3-15.4 1.9-3.1 3.9-6.1 6.5-8.7 0.7-0.7 1.4-1.4 2.3-2.2-7-0.6-13.2-2.7-18.6-6.8-3.9-2.9-6.8-6.8-9-11.1-1.1-2.1 0-4.7 2.6-4.9 5.6-0.5 11.1 0.4 16.4 2.3 4.2 1.5 8 3.8 11.3 6.7 0.2 0.2 0.4 0.4 0.8 0.4 0.4-0.5 0-1 0.3-1.5 0.5-4.4 2.4-5.1 5.9-5.6 3-0.5 6.1-0.4 9.2-0.2 0.3 0 0.6-0.1 0.9-0.1 0.7 0.3 1.5 0 2.2 0.2h6.6c2.5-0.2 5.1 0.1 7.6-0.2 0.3 0.1 0.8 0.4 0.6-0.4-0.3-0.9-1.1-1.3-1.7-2-2.7-2.9-5.6-5.7-8.7-8.1-3.7-3-7.6-5.9-11.9-8.2-2.2-1.2-2.3-3.3-1.7-5.5 1.3-4.6 5.2-6.3 9.6-5.9 0.9 0.1 1.7 0.5 1.3-1.2-0.8-3-1.6-6-1.7-9.2-0.2-0.5 0-1.1-0.2-1.6 0-0.9 0.1-1.8 0.1-2.7 0-8 2-15.4 5.8-22.3 1.9-3.5 4.1-3.7 6.5-0.6 4.9 6.3 8.8 13.2 10.6 21.1 1.8 8 0.7 15.4-4.3 22.1-0.5 0.7-1.8 1.2-1.5 2.1 0.2 0.7 1.3 1.1 2 1.6 3.7 3 7.4 6 11.2 8.9 3.9 3 8.5 4.3 13.3 5.1 3.1 0.5 6.3 0.8 9.4 0.6 1.4 0.3 2.9-0.1 4.3 0.2 3.6 0 7.2 0.1 10.9 0.1 1.1 0.3 2.3 0 3.4 0.2 7.9 0.2 15.9 0.1 23.8 0.1 1.5 0 0.9-0.8 0.6-1.4-2.1-3.5-4.2-7.1-6.3-10.6-3.5-5.7-7.8-10.6-12.5-15.3-0.9-0.9-1 0-1.2 0.5-2.8 5.9-7.2 10.2-13.1 12.8-5.4 2.4-11 3.1-16.8 1.6-1.8-0.5-3.4-0.9-4.5-2.7-0.8-1.4 0.1-2.4 0.5-3.4 1.7-4.3 4.5-8 8-11 3.7-3.2 8-5.1 12.8-5.9 0.3-0.1 0.7 0.1 0.9-0.4-2.6-1.8-5.4-3.4-7.5-5.8-2.9-3.3-3.4-6-1.5-9 1.7-2.8 4.4-4.5 7.8-4.9 0.2 0 0.5-0.1 0.7-0.1 0.6-0.1 1.2-0.1 1.8 0 5.1 0.6 9.4 3.2 13.4 6.2 4.5 3.4 8.6 7.4 12.6 11.4 0.4 0.4 0.6 0.9 1.4 1v-5.3c-0.2-0.8-0.4-1.4-0.3-1.9z"/>
  <path class="st2" d="m424.4 326.3c0 0.9-0.1 1.7-0.1 2.6-0.3 0.7 0 1.5-0.2 2.2 0 0.5 0 1-0.1 1.5-0.3 0.5 0 1-0.2 1.5-1.1 8.2-2.8 16.3-6 24.1-3.3 8-7.8 15.4-13.4 22-7.9 9.2-17.3 16.3-28.2 21.4-7.7 3.7-15.7 6.3-24.1 7.6-1.2 0.2-2.5 0.4-3.7 0.6-2.1 1.1-4.4 0.8-6.6 1-3 0.2-6 0.5-9 0-0.6-0.1-1.2 0-1.7-0.4-0.6-2-0.9-4-0.5-6.1 0.4-0.8 1.2-0.6 1.8-0.6h6.3c7.9-0.1 15.7-1.3 23.3-3.6 11.1-3.3 21-8.6 29.7-16.2 6.2-5.5 11.4-11.8 15.6-19 5.8-10 8.7-20.9 9.9-32.3 0.7-6.9 0.7-13.8 0.5-20.7-0.3-9.3-1.6-18.5-2.9-27.6-0.2-1.3-0.8-1-1.5-0.5-2.9 2.1-5.9 4.2-9 6.1-5.5 3.4-11.3 6.2-17.6 7.8-11.9 3.2-22.8 0.7-32.9-5.8-7.1-4.6-12.9-10.6-18.1-17.3-5.7-7.2-10.5-15-15.9-22.5-5-7-10.6-13.5-17.4-18.8-3.8-3-8-5.5-12.8-6.8-8-2.2-15.2-0.4-21.7 4.7-6.9 5.5-11.5 12.6-14.9 20.6-3.7 8.8-5.6 17.9-6.7 27.4-0.8 6.8-0.8 13.7-0.5 20.5 0.4 9.5 2 18.8 4.5 28 2.2 8.3 4.9 16.3 8.4 24.2 3.9 8.7 8.9 16.7 15.1 23.9 7.4 8.5 16.1 15.3 26.3 20.1 6.9 3.3 14.1 5.5 21.7 6.8 0.9 0.2 1.9 0 2.6 0.8 0.7 1.8 0.4 3.7 0.7 5.6 0 0.3-0.1 0.6-0.3 0.8-2.7-0.1-5.3-0.7-7.9-1.3-7.8-1.8-15.3-4.4-22.3-8.2-4.8-2.6-9.4-5.6-13.8-9-4.2-3.3-8-7-11.6-10.8-4.7-4.9-8.6-10.5-11.9-16.4-3.1-5.4-5.5-11.1-7.8-17-2.9-7.5-5.1-15.2-7.1-22.9-1-4-1.7-8-2.2-12.1-0.2-1.8-0.5-3.6-0.7-5.5-0.2-0.5 0.1-1-0.2-1.5 0-0.5 0-1-0.1-1.5-0.3-0.7 0.1-1.4-0.2-2.1 0-0.8-0.1-1.6-0.1-2.4-0.3-1.5 0.1-3-0.2-4.5 0.5-1.6-0.9-2.1-1.7-2.7-3.5-3-7.2-5.7-10.6-8.6-1.1-0.9-2.8-1.4-3-3.2-0.1-0.6-0.1-1.2 0-1.8 0.4-2 2.2-2.3 3.6-2.9 2.4-1.1 4.9-2.1 7.5-3.2-4.9-5.9-7.5-12.6-7.9-20.1-0.1-1.7-0.1-3.4 0-5 0.1-1.4 0.5-2.5 2-3s2.6-0.1 3.7 1c3.3 3.4 7 6.6 10.6 9.7 1.1 0.9 1.4 0.8 1.9-0.6 2.5-7.5 6.1-14.5 11.1-20.7 3.9-4.7 8.2-8.8 13.8-11.5 3.2-1.5 6.5-2.2 9.9-2.7 1.9-0.1 3.8-0.1 5.6 0 8.5 1 15.9 4.6 22.5 9.9 7 5.6 12.4 12.5 17.5 19.7 4.7 6.6 8.9 13.5 13.8 19.9 6.5 8.5 13.7 16.1 23.7 20.6 5.3 2.4 10.7 3.7 16.5 3.1 0.5-0.2 1 0.1 1.5-0.2 3.4-0.2 6.5-1.3 9.6-2.6 6.6-2.7 12.5-6.6 18.1-11 1.9-1.5 3.8-3.1 5.8-4.5 1.2-0.9 2.7-1 4.1-0.5 1.6 0.5 1.5 2.1 1.7 3.3l2.1 15.3c0.3 1.9 0.5 3.8 0.7 5.7 0.2 0.5-0.1 1 0.2 1.5 0 0.5 0.1 1 0.1 1.5 0.2 0.5-0.1 1.1 0.2 1.5 0 0.6 0.1 1.2 0.1 1.7 0.2 0.6-0.1 1.2 0.2 1.8 0 0.7 0.1 1.4 0.1 2.1 0.2 0.8-0.1 1.6 0.2 2.4 0 1 0 2 0.1 2.9 0.6 4.1 0.6 8.5 0.4 12.8z"/>
  <path class="st2" d="m207.7 222.7c-0.4 1.3-0.3 2.4 0.2 3.7 2.3 5.8-2.1 12.3-8.7 12.4-5 0.1-8.8-2.3-11.9-6.2-1.7-2.1-2.9-4.3-3.3-6.9-0.1-1.2-0.1-2.4 0-3.6 0.8-3.7 2.6-6.5 6.5-7.5 3-0.8 5.6 0.1 7.7 2.4 1.1 1.2 2.1 2.5 3.3 4 0.7-5.6 1.3-11 1.9-16.4l1.2-10.5c0.1-1 0-1.3-1.1-1.1-5.8 1.4-11.5 2.8-17.3 4.2-0.7 0.2-1.2 0.3-1.3 1.1-0.7 6.2-1.4 12.3-2.1 18.5v0.7c-0.3 0.5 0 1-0.2 1.5-0.4 2.1-0.7 4.1-0.7 6.2-0.3 0.5 0 1-0.2 1.5-0.9 1.9 0.1 3.6 0.6 5.4 1.3 4.4-2.1 9.7-6.8 10.7-0.5 0.1-1 0.2-1.6 0.4-0.7 0.1-1.4 0.1-2.1 0-6.5-0.5-12.7-6.9-13.8-12.6-0.2-0.5 0.1-1-0.2-1.5v-1.5c0.3-0.5 0-1 0.2-1.5 0.7-3.8 2.8-6.3 6.6-7.2 0.5-0.2 1 0.1 1.5-0.2 4.4 0.1 6.5 3.3 8.9 6.3 0.4-0.1 0.4-0.1 0.6-0.9 0.4-3.8 0.8-7.5 1.3-11.3 0.3-0.5 0-1 0.2-1.5 0.4-3.8 0.8-7.5 1.3-11.3 0.3-0.5 0-1 0.2-1.5 0.1-0.8 0-1.6 0.2-2.3 0.8-2.6 2.1-4.3 5.1-5 8.6-1.8 17-4.1 25.5-6.1 1.9-0.4 3.1 0.3 3.7 1.9 0.7 1.8 0.3 2.9-1.5 3.9-1.2 0.7-0.5 1.9-0.9 2.9-0.2 0.5 0 1.2 0 1.8-0.3 0.5 0 1-0.2 1.5-0.3 1.2-0.5 2.4-0.4 3.6-0.3 0.5 0 1-0.2 1.5-0.4 2.1-0.7 4.1-0.7 6.2-0.3 0.5 0 1-0.2 1.5-0.3 1.2-0.5 2.4-0.4 3.6-0.3 0.5 0 1-0.2 1.5-0.4 2.1-0.7 4.1-0.7 6.2-0.1 0.5 0.2 1.1 0 1.5z"/>
  <path class="st3" d="m460.4 465.1c0.3 3.7 0.6 7.3 0.9 11-0.5 0.5-1.1 0.4-1.7 0.3-8.3-1-16.6-1.9-25-2.7-6.3-0.6-12.6-1.1-19-1.6-6.3-0.5-12.6-1-19-1.4-4.4-0.3-8.9-0.5-13.4-0.7-6-0.3-12-0.4-18-0.8h-0.9c-8.6-0.1-17.1-0.5-25.7-0.3-0.7 0-1.5 0.1-2.2-0.2-1.7-1.8-1.3-4.1 0.9-5 3.7-1.6 7.3-3.3 11-4.7 1.2-0.5 1.8-1.6 3-2.2 4.7-0.3 9.4-0.2 14.1 0 1.1 0 2.2 0.2 3.3 0.2 7 0 13.9 0.5 20.9 0.8 6.5 0.3 13 0.8 19.6 1.3 8.4 0.6 16.8 1.5 25.1 2.4 8.1 0.9 16.2 1.9 24.3 3.1 0.7 0 1.4 0 1.8 0.5z"/>
  <path class="st2" d="m316.9 474.3c5.4-1 10.8-1.6 16.4-1.6 2.1 0 3-1.5 3-4.4 6.1 0 12.3-0.1 18.4 0.1 6.2 0.2 12.5 0.4 18.7 0.6 6.1 0.2 12.1 0.5 18.2 0.9 6.1 0.3 12.2 0.7 18.3 1.2 6.1 0.4 12.1 0.9 18.1 1.5 7.3 0.7 14.5 1.5 21.8 2.3 3.8 0.4 7.6 0.8 11.5 1.2 1.5 0.4 2.6 1.1 3 2.8 0.5 2.4-1.1 4.1-3.6 3.6-2.4-0.4-4.8-0.7-7.2-0.9-2.1-0.2-4.2-0.6-6.3-0.8-2.4-0.3-4.7-0.5-7.1-0.7-2.5-0.3-5.1-0.6-7.6-0.7-2.9-0.2-5.8-0.6-8.7-0.7-1.7-0.1-3.5-0.4-5.2-0.5-3.4-0.1-6.7-0.5-10-0.7-4-0.3-8-0.5-11.9-0.9-0.1 0-0.3 0.1-0.4 0.1-0.5-0.2-1.1 0-1.6-0.2-1.1 0-2.3-0.3-3.4-0.1-0.5-0.2-1.1 0-1.6-0.2-1.3-0.1-2.7-0.3-4-0.1-0.5-0.2-1.1 0-1.6-0.2-1.5-0.1-3.1-0.3-4.6-0.1-0.6-0.2-1.3 0-1.9-0.2-1.6-0.1-3.3-0.3-4.9-0.1-0.8-0.3-1.7 0-2.5-0.2-2.1 0-4.3-0.3-6.4-0.1-0.9-0.3-1.9 0-2.8-0.2-3 0-6-0.3-9.1-0.1-1.5-0.3-3.1 0-4.6-0.2-9-0.2-18-0.1-27-0.1-1.3 0-2.4 0.3-3.4-0.3z"/>
  <path class="st2" d="m351.2 457c-0.1-1.6-0.2-3.2-0.4-4.7-0.1-1.2 0.2-1.8 1.5-1.6 0.4 0.1 0.8 0 1.2-0.1 2 0 4-0.1 6 0.1 2.4 0 4.7 0.1 7.1 0.1 1.7 0.3 3.4-0.1 5.2 0.2 1.4 0 2.8 0.1 4.1 0.1 1.2 0.3 2.4 0 3.6 0.2 1.2 0 2.3 0.1 3.5 0.1 1 0.3 2.1 0 3.1 0.2 0.9 0 1.8 0 2.7 0.1 0.9 0.4 1.8 0 2.7 0.2 0.9 0 1.7 0.1 2.6 0.1 0.8 0.3 1.7 0 2.5 0.2 0.7 0 1.4 0 2.1 0.1 0.8 0.4 1.6 0 2.4 0.2 0.7 0 1.4 0.1 2 0.1 0.7 0.3 1.4 0 2.1 0.2 0.6 0 1.2 0 1.8 0.1 0.6 0.3 1.2 0 1.8 0.2 0.7 0 1.3 0.1 2 0.1 0.6 0.3 1.3 0 1.9 0.2 0.6 0 1.1 0.1 1.7 0.1 0.5 0.3 1.1 0 1.6 0.2 0.6 0 1.2 0.1 1.7 0.1 0.5 0.3 1 0 1.5 0.2 0.6 0 1.1 0.1 1.7 0.1 0.5 0.3 1.1 0 1.6 0.2 0.5 0 1 0.1 1.4 0.1 0.5 0.3 1 0 1.5 0.2 0.5 0 1 0.1 1.4 0.1 0.5 0.3 1 0 1.5 0.2 0.4 0 0.8 0 1.2 0.1 0.5 0.3 1 0 1.5 0.2 2.2 0.3 4.3 0.7 6.5 0.7 0.5 0.3 1 0 1.5 0.2 4.8 0.6 9.6 1.2 14.4 1.9 2.6 0.4 5.2 0.8 7.8 1.2 1.1 0.2 1.6 0.9 2 1.8 0.1 0.5 0.1 1 0 1.5-0.5 1.3-1.3 2.3-2.7 2.7-3.7-0.1-7.2-1-10.9-1.3-3.6-0.4-7.1-0.9-10.7-1.4-5.1-0.6-10.3-1.2-15.4-1.7-3.7-0.4-7.5-0.7-11.2-1-4.7-0.4-9.4-0.8-14.2-1.1-1.8-0.1-3.6-0.2-5.3-0.3-5.4-0.2-10.8-0.5-16.2-0.7-8.5-0.5-16.9-0.7-25.4-0.7z"/>
  <path class="st3" d="m328.8 457c0.2 2.2 0.4 4.4 0.7 6.9-2.6-1.1-4.9-2.1-7.1-3.2-1.4-0.6-2.9-1.3-4.3-1.9-1.8-0.7-3.8 0.2-4.5 2-0.6 1.5-0.1 2.8 1.5 3.5 1.5 0.7 3 1.3 4.5 2 0.4 0.2 1 0.3 1.2 0.8-2.3 0.5-4.5 0.9-6.8 1.4-0.4-0.4-1-0.2-1.5-0.2-2.3 0.3-4.6 0-7 0.1-1.1 0.1-2.1-0.2-3.2 0.1h-5.4c-0.7 0.2-1.5 0.1-2.3 0.1-0.7 0.1-1.5-0.2-2.2 0.1h-3.9c-0.6 0.2-1.3 0.1-2 0.1-0.6 0.1-1.3-0.2-1.9 0.1h-3.3c-0.5 0.2-1.1 0.1-1.7 0.1-0.5 0.1-1.1-0.1-1.6 0.1-1.4 0-2.8 0-4.2 0.3-0.5-0.2-1-0.2-1.5 0h-3c-0.8 0.4-1.6-0.1-2.4 0.3h-2.7c-0.7 0.3-1.4-0.1-2.1 0.3h-2.7c-0.7 0.4-1.4-0.1-2.1 0.3-2.2 0-4.3 0.5-6.5 0.3-0.6 0.3-1.2-0.1-1.8 0.3h-2.1c-0.6 0.3-1.2-0.1-1.8 0.3h-2.1c-0.5 0.3-1-0.1-1.5 0.3h-2.1c-0.5 0.3-1-0.1-1.5 0.3-3 0.4-5.7 1.5-8.3 3.1-4.9 3.1-8.6 7.4-12.5 11.5-3.5 3.7-7.4 7-12.2 9-1.7 0.7-3.5 1.4-5.2 2.1-1.2 0.5-2.4 1.1-3.8 0.6-0.6-0.2-1.4-0.2-1.8 0.3-1.6 1.8-3.9 1.8-6 2.2-2 0.5-4 0.7-6 0.9-1.8 0.2-3.6-0.4-5.3-1 7.5-2.1 14.6-4.7 21.5-8.2 4.6-2.4 9-5.2 13.2-8.2 1.4-1 1.7-2.4 1.4-3.9-0.3-1.4-1.5-2.1-3.8-2.1-0.8 0.3-1.7 0.1-2.5 0.1-0.7 0.1-1.5-0.2-2.2 0.1h-2.7c-1.5 0.3-3 0.1-4.6 0.1-0.8 0.1-1.5-0.2-2.3 0.1h-2.7c-1.4 0.3-2.9 0-4.3 0.1-0.9 0.1-1.7-0.1-2.6 0.1h-4.5c-0.9 0.3-1.8-0.1-2.7 0.3h-4.8c-1.6 0.4-3.2-0.1-4.8 0.3h-6.8c-0.8 0.4-1.6-0.1-2.4 0.3h-6.8c-0.9 0.3-1.8-0.1-2.7 0.3h-4.8c-1.5 0.3-3 0.1-4.6 0.1-0.8 0.1-1.5-0.2-2.3 0.1h-4.8c-0.7 0.2-1.5 0.1-2.3 0.1-0.7 0.1-1.5-0.2-2.2 0.1h-2.7c-1.5 0.3-3 0.1-4.6 0.1-0.8 0.1-1.5-0.2-2.3 0.1-1.7 0.1-3.5-0.2-5.2 0.2-0.3 0.1-0.5 0-0.6-0.2-1.3-1.8-2.7-3.6-2.5-6.1v-0.1c-0.6-1.8 0.5-1.9 1.8-1.7 1.6 0.3 3.2 0.1 4.8 0.1 2.4-0.1 4.7 0.2 7.1-0.1h14.6c1.5-0.3 2.9 0 4.4-0.1 0.5 0 1.1 0.1 1.6-0.1 2.7-0.5 3.6-2.9 1.9-5.1-3.6-4.9-7.8-9.2-12.2-13.3-4.2-3.9-8.7-7.2-13.5-10.3-0.4-0.2-1.2-0.4-0.9-1s1.1-0.5 1.6-0.4c2.8 0.6 5.4 1.7 7.8 3.1 5.5 3.1 10.6 6.8 15.5 10.8 3 2.4 5.9 4.8 9.4 6.4 3.1 1.5 6.4 2.3 9.8 2.6 4.6 0.4 9.2 0.8 13.9 0.9 0.5 0.3 1 0 1.5 0.3h5.3c1.5 0.4 3-0.1 4.5 0.3h3.3c1.5 0.3 3.1 0.1 4.6 0.1h14.3c1.6-0.1 3.3 0.2 4.9-0.1h3.6c1.5-0.4 3 0.1 4.5-0.3 2.3-0.1 3.3-2.7 2.3-4.5-4.1-7.8-8.4-15.3-13.6-22.4-2.9-4-6.2-7.6-9.8-10.9-3.1-2.9-6.6-5.3-10.6-6.9-2.5-1-4.9-2.1-7.1-3.7-1.3-1-2.2-2-1.5-3.7 0.4-0.9-0.1-2.3 0.9-2.7 1.3-0.4 2.8-0.4 4.2 0.3 3.6 1.7 6.7 4.2 9.8 6.6 4.9 3.7 9.4 7.9 13.5 12.4 5.9 6.4 10.9 13.3 15.1 21 1.9 3.4 3.5 6.9 5.2 10.4 0.8 1.6 2.1 2.4 3.7 1.9 5.9-1.7 11.9-2.2 18-2.6 6.5-0.4 13-1.1 19.4-1.8 4.8-0.5 9.6-0.9 14.4-1.2 4.6-0.3 9.2-0.7 13.9-0.8 0.5-0.2 1-0.2 1.5 0 1.5-0.3 2.9-0.3 4.4-0.3 1-0.4 2 0.1 3-0.3h3.6c0.6-0.3 1.2 0.1 1.8-0.3h7.1c1-0.4 2 0.1 3-0.3 1.1 0.4 1.4 0.4 1.7 0.4z"/>
  <path class="st4" d="m182.7 539.3c-1.1-10.3 0.4-20 4.4-29.3 0.5-1.2 1-2.3 0.5-3.6-0.2-0.4 0.1-0.6 0.4-0.8 1.4-0.7 2.8-1.4 4.2-2.2 0.9-0.5 0.9 0.2 1.1 0.7 1.7 4.4 2.3 9 1.8 13.7-0.8 7-3.7 13.1-8.5 18.2-1.2 1.1-2.4 2.2-3.9 3.3z"/>
  <path class="st4" d="m133.1 406.1c4.4 6.8 7.9 13.6 7.6 21.7-0.2 5.3-2.6 9.7-6.3 13.3-0.3 0.3-0.5 0.4-0.9 0.2s-0.5-0.4-0.4-0.8c0.3-0.9-0.2-1.7-0.5-2.6-3.9-10.1-4.1-20.1-0.3-30.3 0.2-0.3 0.4-0.8 0.8-1.5z"/>
  <path class="st4" d="m228.4 397c3.8 11.5 3 22.6-2.5 33.3-0.8 1.5-1.7 2.9-2.6 4.3-0.2 0.4-0.4 0.9-1 0.4-0.4-0.3-0.9-0.5-0.6-1.1 0.3-0.7 0.2-1.5 0.2-2.2 0-6.2-0.2-12.4 0.5-18.6 0.7-5.5 1.9-10.7 5.1-15.4 0.1-0.2 0.3-0.4 0.4-0.6 0.2 0 0.3 0 0.5-0.1z"/>
  <path class="st4" d="m108.5 490.8c0.1 8.2-0.7 15.9-7.7 21.5-1.7 1.3-3.6 2.2-5.8 2.5-0.8 0.1-1.2 0-1.1-1 1.7-9.4 6.3-17.1 13.9-22.9 0.2 0 0.4-0.1 0.7-0.1z"/>
  <path class="st4" d="m172.3 442.9c1.5-2.9 3.6-5.2 6.1-7.1 4.1-3 8.7-4.5 13.8-4.4 1.1 0 1.4 0.3 0.8 1.3-3.3 5.9-8.4 9.3-15.1 10.3-1.9 0.3-3.6 0.3-5.6-0.1z"/>
  <path class="st4" d="m102.4 481.1c-5.7 1-16.1-4.1-19.6-9.5 4.7-0.9 16.2 4.7 19.6 9.5z"/>
  <path class="st5" d="m330.9 404c-0.4-0.9-0.2-1.9-0.3-2.9-0.2-2.1-1.1-3.3-3-3.7-2-0.4-3.8 1.2-3.5 3.2 0.1 0.9 0.3 1.8 0.2 2.6-17.4-2.5-32.7-9.6-45.4-21.8-11.8-11.4-19.5-25.2-24.8-40.6-5.8-16.7-9.2-33.8-8.8-51.6 0.4-14.8 2.9-29.2 9.6-42.5 2.8-5.5 6.3-10.4 10.9-14.5 9.4-8.3 19.7-9.5 30.7-3.5 7.2 4 13 9.7 18.2 16 6 7.2 10.9 15.2 16.3 22.9 5.3 7.4 10.9 14.6 18.1 20.4 6.3 5 13.3 8.8 21.4 10.1 8.5 1.3 16.4-0.3 24.2-3.7 6.9-3 13-7.1 19-11.6 0.9-0.7 1.2-0.5 1.3 0.5 1.3 10.1 2.7 20.1 3 30.3 0.4 12-0.2 23.9-3.8 35.4-7.7 24.5-23.9 40.9-47.9 49.9-11.3 4.4-23.2 5.7-35.4 5.1z"/>
  <path class="st6" d="m353.6 450.5c-0.9-0.1-1.9 0.3-2.7-0.3-0.4-0.8 0-1.6-0.2-2.4 0-0.9-0.1-1.8-0.1-2.7-0.3-0.8 0-1.6-0.2-2.4 0-0.8 0-1.6-0.1-2.4-0.4-0.8 0-1.6-0.2-2.4 0-0.9-0.1-1.8-0.1-2.7-0.3-0.8 0-1.6-0.2-2.4 0-0.8 0-1.6-0.1-2.4-0.4-0.9 0-1.8-0.2-2.7 0-0.8 0-1.6-0.1-2.4-0.3-0.8 0-1.6-0.2-2.4 0-0.8 0-1.6-0.1-2.4-0.4-0.8 0-1.6-0.2-2.4 0-0.9-0.1-1.8-0.1-2.7-0.3-0.8 0-1.6-0.2-2.4 0.1-1.2-0.6-2.4-0.1-3.6-2.2 0.2-4.3 0.4-6.5 0.6 0.3 3.8 0.6 7.6 0.8 11.4 0.5 8.9 1 17.8 1.6 26.7v1.2c0.1 1-0.5 1.1-1.2 0.7l-8.4-4.8c-0.4-0.2-0.6-0.6-0.6-1.1-0.5-6.1-1-12.1-1.5-18.2-0.5-5.3-0.9-10.6-1.4-15.9-0.1-2.1-0.3-4.2-0.4-6.3 0.3-1.7 0.3-3.4-0.4-4.9s-2.5-2.4-4.1-2.1c-1.5 0.3-2.6 1.4-2.7 3 0 1.1 0 2.3 0.6 3.3 0.2 2.1 0.4 4.3 0.6 6.4v1.5c0.3 0.6 0 1.2 0.2 1.8 0 0.6 0.1 1.2 0.1 1.8 0.3 0.6 0 1.2 0.2 1.8 0 0.6 0 1.2 0.1 1.8 0.3 0.5 0 1 0.2 1.5 0 0.6 0.1 1.2 0.1 1.8 0.3 0.6 0 1.2 0.2 1.8 0 0.6 0.1 1.2 0.1 1.8 0.3 0.6 0 1.2 0.2 1.8 0 0.6 0 1.2 0.1 1.8 0.3 0.6 0 1.2 0.2 1.8 0 0.6 0.1 1.2 0.1 1.8 0.3 0.6 0 1.2 0.2 1.8 0 0.6 0 1.2 0.1 1.8 0.3 0.6 0 1.2 0.2 1.8 0 0.6 0 1.2 0.1 1.8 0.3 0.6 0 1.2 0.2 1.8 0 0.6 0 1.2 0.1 1.8 0.3 0.5 0 1 0.2 1.5 0 0.6 0.1 1.2 0.1 1.8 0.3 0.6 0 1.2 0.2 1.8l0.3 2.7c0.1 2.1 0.3 4.1 0.4 6.2-0.4 1.5-0.1 3 0.1 4.5 0 0.5 0.3 1.1-0.1 1.4s-0.9-0.1-1.3-0.3c-3.1-1.4-6.2-2.9-9.4-4.1-2-0.8-4.1 0.2-4.9 2.2-0.8 1.8 0 3.2 2.1 4.2 1.4 0.7 2.9 1.2 4.5 2.1-0.9 0.2-1.6 0.2-2.2 0.4-1.3 0.4-2.7 0.2-3.8 1.2-1.5 0.4-3 0.8-4.4 1.3-1.7 0.6-2.3 2-2 3.6 0.1 0.4 0.4 0.7 0.2 1.1-0.5 0.2-1-0.1-1.5 0.3 0.9 0 1.8 0.2 2.6 0.8 0.6 0.4 1.3 0.5 2 0.4 2-0.5 4-1.1 6.1-1.7 0.4 0.2 0.8 0.1 1.2 0.1 4.9-0.4 9.7-1.3 14.6-1.2 0.6 0 1.3-0.1 1.9-0.4 1.9-0.8 2.6-2.7 1.7-4.5-0.1-0.8-0.2-1.7-0.3-2.5s0.2-1.3 1-1.6c4-1.7 8-3.5 12-5.1 1.1-0.4 1.9-1 2.3-2.1 0.6-0.9 0.4-1.9 0.2-2.9-0.3-2.5-0.3-2.5 2-3.2 0.2-0.2 0.2-0.3 0.2-0.5z"/>
  <path class="st7" d="m233.7 254.7c2.7 2.2 5.2 4.3 7.7 6.4 0.3 0.3 0.6 0.6 0.9 0.7 1.9 0.4 1.8 1.6 1.4 3.1-0.2 1-0.3 2.1-0.5 3.1-0.1 0.5 0.2 1.3-0.5 1.3-0.8 0-1.6 0.3-2.3-0.5-3.3-3.3-5.9-8.4-6.7-14.1z"/>
  <path class="st7" d="m241.1 286.7c-2.9-2.4-5.5-4.5-8.3-6.9 3-1.3 5.8-2.5 8.6-3.7 0.6-0.3 0.7 0.1 0.6 0.6-0.4 3.2-0.6 6.4-0.9 10z"/>
  <path class="st2" d="m326.6 360.9c-3.1 3.2-6.8 5.2-11.1 6-10.1 1.9-20.8-6.2-21.8-16.5-0.6-5.7 0.9-11 2.6-16.3 1.7-5.2 3.7-10.3 4.6-15.6 0.5-2.6 0.7-5.2 0.3-7.8-0.2-1.5 0.3-2.7 1.6-3.5 2.2-1.3 4.2-0.3 4.5 2.2 0.5 4.3 0 8.5-1 12.7-1.4 5.5-3.6 10.8-5 16.3-1.1 4.1-1.7 8.2-0.8 12.5 1.2 5.5 5.5 9.5 10.6 10 5.6 0.6 10.7-2.3 13.2-7.5 0.2-0.4 0.4-0.9 0.6-1.3 0.6-1.1 1.6-1.6 2.8-1.5 1.3 0.1 2.2 0.8 2.7 2 0.2 0.5 0.3 1.2 0.4 1.7 1.3 8.1 8.8 14.4 16.9 14.3 0.7 0 1.4-0.1 2.1-0.2 6.2-1 13.8-8.5 14.4-14.1 0.2-2.1-0.3-3.9-1.7-5.5-0.3-0.3-0.5-0.6-0.8-0.9-1.2-1.5-1.2-3 0-4.1 1.4-1.3 3.4-1.4 4.7-0.1 0.9 0.9 1.7 2 2.7 2.8 3.4 2.7 7.2 3.1 11.2 1.8 6.4-2 10.8-8.1 10.9-15.2 0.1-6.1-2.3-11.3-5.5-16.2-0.6-1-1.6-1.5-2.8-1.7-1.8-0.2-2.8-1.9-2.5-3.6 0.3-1.8 1.6-2.8 3.5-2.6 2.2 0.2 4 1.2 5.4 2.8 6.5 6.9 11.2 19.8 5.9 31-4.3 9.3-13.8 13.9-23.7 11.5-1-0.2-1.1 0-1.3 0.8-1.9 9.8-10.4 18.2-20.2 19.5-8.4 1.2-15.1-2.3-20.4-8.7-1.1-1.4-2.1-3.1-3-5z"/>
  <path class="st2" d="m263.7 254.6c1.5 0 2.4 0.8 2.9 2.1 1.5 4.6 4.5 7.6 9 9.2 1.8 0.6 2.5 2.3 1.9 4.1s-2 2.5-3.9 1.8c-6.4-2.3-10.8-6.6-12.9-13.2-0.9-2.2 0.6-4 3-4z"/>
  <path class="st8" d="m278.3 297.5c-3.5-0.1-6.5-3.1-6.3-6.7 0.2-3.8 3-6.3 6.4-6.2 4.3 0.1 6.5 3 6.6 6.6 0.1 3.4-3.2 6.3-6.7 6.3z"/>
 </g>
</svg>
